G04 #@! TF.GenerationSoftware,KiCad,Pcbnew,(5.0.2)-1*
G04 #@! TF.CreationDate,2019-03-07T22:54:45+08:00*
G04 #@! TF.ProjectId,SBC,5342432e-6b69-4636-9164-5f7063625858,rev?*
G04 #@! TF.SameCoordinates,Original*
G04 #@! TF.FileFunction,Legend,Bot*
G04 #@! TF.FilePolarity,Positive*
%FSLAX46Y46*%
G04 Gerber Fmt 4.6, Leading zero omitted, Abs format (unit mm)*
G04 Created by KiCad (PCBNEW (5.0.2)-1) date 07/03/2019 22:54:45*
%MOMM*%
%LPD*%
G01*
G04 APERTURE LIST*
%ADD10C,0.120000*%
%ADD11C,0.150000*%
G04 APERTURE END LIST*
D10*
G04 #@! TO.C,JP4*
X188787000Y-91710000D02*
X187387000Y-91710000D01*
X186687000Y-92410000D02*
X186687000Y-93010000D01*
X187387000Y-93710000D02*
X188787000Y-93710000D01*
X189487000Y-93010000D02*
X189487000Y-92410000D01*
X189487000Y-92410000D02*
G75*
G03X188787000Y-91710000I-700000J0D01*
G01*
X188787000Y-93710000D02*
G75*
G03X189487000Y-93010000I0J700000D01*
G01*
X186687000Y-93010000D02*
G75*
G03X187387000Y-93710000I700000J0D01*
G01*
X187387000Y-91710000D02*
G75*
G03X186687000Y-92410000I0J-700000D01*
G01*
G04 #@! TO.C,JP3*
X183450000Y-93710000D02*
X184850000Y-93710000D01*
X185550000Y-93010000D02*
X185550000Y-92410000D01*
X184850000Y-91710000D02*
X183450000Y-91710000D01*
X182750000Y-92410000D02*
X182750000Y-93010000D01*
X182750000Y-93010000D02*
G75*
G03X183450000Y-93710000I700000J0D01*
G01*
X183450000Y-91710000D02*
G75*
G03X182750000Y-92410000I0J-700000D01*
G01*
X185550000Y-92410000D02*
G75*
G03X184850000Y-91710000I-700000J0D01*
G01*
X184850000Y-93710000D02*
G75*
G03X185550000Y-93010000I0J700000D01*
G01*
G04 #@! TO.C,JP4*
D11*
X188920333Y-90362380D02*
X188920333Y-91076666D01*
X188967952Y-91219523D01*
X189063190Y-91314761D01*
X189206047Y-91362380D01*
X189301285Y-91362380D01*
X188444142Y-91362380D02*
X188444142Y-90362380D01*
X188063190Y-90362380D01*
X187967952Y-90410000D01*
X187920333Y-90457619D01*
X187872714Y-90552857D01*
X187872714Y-90695714D01*
X187920333Y-90790952D01*
X187967952Y-90838571D01*
X188063190Y-90886190D01*
X188444142Y-90886190D01*
X187015571Y-90695714D02*
X187015571Y-91362380D01*
X187253666Y-90314761D02*
X187491761Y-91029047D01*
X186872714Y-91029047D01*
G04 #@! TO.C,JP3*
X184983333Y-90384380D02*
X184983333Y-91098666D01*
X185030952Y-91241523D01*
X185126190Y-91336761D01*
X185269047Y-91384380D01*
X185364285Y-91384380D01*
X184507142Y-91384380D02*
X184507142Y-90384380D01*
X184126190Y-90384380D01*
X184030952Y-90432000D01*
X183983333Y-90479619D01*
X183935714Y-90574857D01*
X183935714Y-90717714D01*
X183983333Y-90812952D01*
X184030952Y-90860571D01*
X184126190Y-90908190D01*
X184507142Y-90908190D01*
X183602380Y-90384380D02*
X182983333Y-90384380D01*
X183316666Y-90765333D01*
X183173809Y-90765333D01*
X183078571Y-90812952D01*
X183030952Y-90860571D01*
X182983333Y-90955809D01*
X182983333Y-91193904D01*
X183030952Y-91289142D01*
X183078571Y-91336761D01*
X183173809Y-91384380D01*
X183459523Y-91384380D01*
X183554761Y-91336761D01*
X183602380Y-91289142D01*
G04 #@! TD*
M02*
