M48
; DRILL file {KiCad (5.1.0)-1} date 05/04/2019 18:10:56
; FORMAT={-:-/ absolute / metric / decimal}
; #@! TF.CreationDate,2019-04-05T18:10:56+08:00
; #@! TF.GenerationSoftware,Kicad,Pcbnew,(5.1.0)-1
FMAT,2
METRIC
T1C0.500
T2C0.584
T3C0.700
T4C0.750
T5C0.800
T6C0.813
T7C0.900
T8C1.000
T9C1.016
T10C1.100
T11C1.143
T12C3.048
%
G90
G05
T1
X101.986Y-94.488
X103.886Y-94.488
T2
X87.059Y-103.618
X87.856Y-72.29
X88.456Y-75.575
X88.519Y-112.014
X88.752Y-62.614
X89.98Y-106.617
X90.35Y-62.169
X90.945Y-107.371
X93.218Y-107.404
X100.584Y-65.722
X100.747Y-117.894
X102.007Y-87.973
X102.87Y-91.44
X103.886Y-57.01
X105.41Y-111.76
X108.529Y-66.19
X108.715Y-69.229
X110.49Y-93.98
X116.962Y-127.897
X117.856Y-119.38
X119.489Y-129.728
X120.104Y-93.466
X123.393Y-106.723
X123.952Y-81.661
X125.969Y-99.044
X127.057Y-102.033
X127.063Y-82.105
X129.54Y-105.029
X132.725Y-118.875
X133.418Y-94.801
X135.308Y-108.742
X139.014Y-138.669
X140.952Y-84.747
X140.97Y-66.002
X143.121Y-85.204
X143.869Y-145.564
X144.094Y-109.967
X144.755Y-57.884
X144.948Y-117.279
X145.804Y-103.312
X147.137Y-118.377
X148.909Y-129.346
X149.885Y-78.041
X150.103Y-145.683
X150.851Y-69.54
X151.898Y-68.783
X152.014Y-117.119
X152.293Y-122.616
X152.851Y-60.655
X153.693Y-59.882
X154.478Y-59.052
X155.545Y-83.637
X157.371Y-75.095
X158.935Y-101.796
X159.441Y-79.299
X160.02Y-77.216
X160.02Y-126.238
X160.597Y-63.858
X160.881Y-79.748
X161.615Y-59.71
X161.874Y-83.694
X161.958Y-62.911
X163.246Y-134.239
X163.619Y-62.654
X164.239Y-102.362
X164.719Y-66.002
X165.064Y-109.957
X165.355Y-132.623
X165.583Y-106.893
X166.14Y-93.96
X166.611Y-60.719
X167.082Y-122.974
X167.63Y-62.24
X170.18Y-89.997
X173.228Y-122.428
X173.728Y-82.019
X174.396Y-93.577
X175.082Y-109.061
X176.911Y-114.554
X176.983Y-117.069
X178.079Y-90.552
X179.001Y-137.683
X180.342Y-94.498
X181.828Y-133.82
X184.125Y-142.796
X186.939Y-143.721
X187.579Y-117.777
X189.138Y-121.107
X189.547Y-94.615
X189.786Y-98.948
X192.507Y-91.653
X192.536Y-113.747
X193.462Y-115.136
X194.678Y-113.589
X195.23Y-108.986
X195.239Y-106.928
X198.051Y-135.753
X198.247Y-122.682
X199.881Y-115.698
X206.708Y-136.876
X207.543Y-137.711
X209.399Y-103.414
X209.908Y-102.391
X211.026Y-81.244
X217.978Y-117.328
X222.7Y-110.124
T3
X116.967Y-102.87
X116.967Y-110.49
X94.424Y-144.018
X94.424Y-151.638
X91.63Y-72.39
X91.63Y-80.01
X94.932Y-72.39
X94.932Y-80.01
X223.52Y-121.793
X223.52Y-129.413
X179.832Y-63.5
X187.452Y-63.5
X116.967Y-92.71
X116.967Y-100.33
X88.646Y-124.523
X88.646Y-132.143
X179.832Y-60.96
X187.452Y-60.96
T4
X88.963Y-149.86
X90.233Y-148.59
X90.233Y-151.13
T5
X88.773Y-93.98
X91.273Y-93.98
X99.06Y-143.51
X99.06Y-151.13
X101.6Y-143.51
X101.6Y-151.13
X104.14Y-143.51
X104.14Y-151.13
X106.68Y-143.51
X106.68Y-151.13
X109.22Y-143.51
X109.22Y-151.13
X111.76Y-143.51
X111.76Y-151.13
X114.3Y-143.51
X114.3Y-151.13
X223.52Y-92.773
X223.52Y-95.313
X223.52Y-97.853
X223.52Y-100.393
X223.52Y-102.933
X223.52Y-105.474
X96.52Y-82.55
X96.52Y-90.17
X99.06Y-82.55
X99.06Y-90.17
X101.6Y-82.55
X101.6Y-90.17
X104.14Y-82.55
X104.14Y-90.17
X106.68Y-82.55
X106.68Y-90.17
X109.22Y-82.55
X109.22Y-90.17
X111.76Y-82.55
X111.76Y-90.17
X114.3Y-82.55
X114.3Y-90.17
X90.043Y-99.187
X92.543Y-99.187
X191.833Y-67.31
X191.833Y-72.31
X91.567Y-59.69
X91.567Y-67.31
X94.107Y-59.69
X94.107Y-67.31
X96.647Y-59.69
X96.647Y-67.31
X99.187Y-59.69
X99.187Y-67.31
X101.727Y-59.69
X101.727Y-67.31
X104.267Y-59.69
X104.267Y-67.31
X106.807Y-59.69
X106.807Y-67.31
X203.2Y-123.19
X203.2Y-130.81
X205.74Y-123.19
X205.74Y-130.81
X208.28Y-123.19
X208.28Y-130.81
X210.82Y-123.19
X210.82Y-130.81
X213.36Y-123.19
X213.36Y-130.81
X215.9Y-123.19
X215.9Y-130.81
X218.44Y-123.19
X218.44Y-130.81
X168.91Y-97.79
X168.91Y-100.33
X168.91Y-102.87
X168.91Y-105.41
X168.91Y-107.95
X168.91Y-110.49
X195.58Y-55.88
X195.58Y-63.5
X198.12Y-55.88
X198.12Y-63.5
X200.66Y-55.88
X200.66Y-63.5
X203.2Y-55.88
X203.2Y-63.5
X205.74Y-55.88
X205.74Y-63.5
X208.28Y-55.88
X208.28Y-63.5
X210.82Y-55.88
X210.82Y-63.5
X213.36Y-55.88
X213.36Y-63.5
X215.9Y-55.88
X215.9Y-63.5
X218.44Y-55.88
X218.44Y-63.5
X125.73Y-115.57
X125.73Y-130.81
X128.27Y-115.57
X128.27Y-130.81
X130.81Y-115.57
X130.81Y-130.81
X133.35Y-115.57
X133.35Y-130.81
X135.89Y-115.57
X135.89Y-130.81
X138.43Y-115.57
X138.43Y-130.81
X140.97Y-115.57
X140.97Y-130.81
X143.51Y-115.57
X143.51Y-130.81
X146.05Y-115.57
X146.05Y-130.81
X148.59Y-115.57
X148.59Y-130.81
X151.13Y-115.57
X151.13Y-130.81
X153.67Y-115.57
X153.67Y-130.81
X156.21Y-115.57
X156.21Y-130.81
X158.75Y-115.57
X158.75Y-130.81
X161.29Y-115.57
X161.29Y-130.81
X163.83Y-115.57
X163.83Y-130.81
X203.2Y-88.9
X203.2Y-96.52
X205.74Y-88.9
X205.74Y-96.52
X208.28Y-88.9
X208.28Y-96.52
X210.82Y-88.9
X210.82Y-96.52
X213.36Y-88.9
X213.36Y-96.52
X215.9Y-88.9
X215.9Y-96.52
X218.44Y-88.9
X218.44Y-96.52
X181.61Y-139.636
X181.61Y-147.256
X184.15Y-139.636
X184.15Y-147.256
X186.69Y-139.636
X186.69Y-147.256
X189.23Y-139.636
X189.23Y-147.256
X177.165Y-61.087
X177.165Y-66.087
X223.393Y-146.05
X223.393Y-151.05
X92.202Y-83.82
X92.202Y-88.82
X88.392Y-59.69
X88.392Y-64.69
X100.457Y-99.06
X102.957Y-99.06
X117.475Y-135.128
X117.475Y-140.128
X96.52Y-123.19
X96.52Y-130.81
X99.06Y-123.19
X99.06Y-130.81
X101.6Y-123.19
X101.6Y-130.81
X104.14Y-123.19
X104.14Y-130.81
X106.68Y-123.19
X106.68Y-130.81
X109.22Y-123.19
X109.22Y-130.81
X111.76Y-123.19
X111.76Y-130.81
X114.3Y-123.19
X114.3Y-130.81
X203.2Y-100.33
X203.2Y-107.95
X205.74Y-100.33
X205.74Y-107.95
X208.28Y-100.33
X208.28Y-107.95
X210.82Y-100.33
X210.82Y-107.95
X213.36Y-100.33
X213.36Y-107.95
X215.9Y-100.33
X215.9Y-107.95
X218.44Y-100.33
X218.44Y-107.95
X96.52Y-133.35
X96.52Y-140.97
X99.06Y-133.35
X99.06Y-140.97
X101.6Y-133.35
X101.6Y-140.97
X104.14Y-133.35
X104.14Y-140.97
X106.68Y-133.35
X106.68Y-140.97
X109.22Y-133.35
X109.22Y-140.97
X111.76Y-133.35
X111.76Y-140.97
X114.3Y-133.35
X114.3Y-140.97
X177.8Y-111.76
X177.8Y-119.38
X180.34Y-111.76
X180.34Y-119.38
X182.88Y-111.76
X182.88Y-119.38
X185.42Y-111.76
X185.42Y-119.38
X187.96Y-111.76
X187.96Y-119.38
X190.5Y-111.76
X190.5Y-119.38
X193.04Y-111.76
X193.04Y-119.38
X91.948Y-114.3
X91.948Y-119.3
X195.58Y-143.446
X195.58Y-151.066
X198.12Y-143.446
X198.12Y-151.066
X200.66Y-143.446
X200.66Y-151.066
X203.2Y-143.446
X203.2Y-151.066
X205.74Y-143.446
X205.74Y-151.066
X208.28Y-143.446
X208.28Y-151.066
X210.82Y-143.446
X210.82Y-151.066
X213.36Y-143.446
X213.36Y-151.066
X215.9Y-143.446
X215.9Y-151.066
X218.44Y-143.446
X218.44Y-151.066
X223.52Y-134.683
X223.52Y-139.683
X125.73Y-76.2
X125.73Y-91.44
X128.27Y-76.2
X128.27Y-91.44
X130.81Y-76.2
X130.81Y-91.44
X133.35Y-76.2
X133.35Y-91.44
X135.89Y-76.2
X135.89Y-91.44
X138.43Y-76.2
X138.43Y-91.44
X140.97Y-76.2
X140.97Y-91.44
X143.51Y-76.2
X143.51Y-91.44
X146.05Y-76.2
X146.05Y-91.44
X148.59Y-76.2
X148.59Y-91.44
X151.13Y-76.2
X151.13Y-91.44
X153.67Y-76.2
X153.67Y-91.44
X156.21Y-76.2
X156.21Y-91.44
X158.75Y-76.2
X158.75Y-91.44
X161.29Y-76.2
X161.29Y-91.44
X163.83Y-76.2
X163.83Y-91.44
X166.37Y-76.2
X166.37Y-91.44
X168.91Y-76.2
X168.91Y-91.44
X171.45Y-76.2
X171.45Y-91.44
X173.99Y-76.2
X173.99Y-91.44
X96.52Y-102.87
X96.52Y-110.49
X99.06Y-102.87
X99.06Y-110.49
X101.6Y-102.87
X101.6Y-110.49
X104.14Y-102.87
X104.14Y-110.49
X106.68Y-102.87
X106.68Y-110.49
X109.22Y-102.87
X109.22Y-110.49
X111.76Y-102.87
X111.76Y-110.49
X114.3Y-102.87
X114.3Y-110.49
X125.73Y-96.52
X125.73Y-111.76
X128.27Y-96.52
X128.27Y-111.76
X130.81Y-96.52
X130.81Y-111.76
X133.35Y-96.52
X133.35Y-111.76
X135.89Y-96.52
X135.89Y-111.76
X138.43Y-96.52
X138.43Y-111.76
X140.97Y-96.52
X140.97Y-111.76
X143.51Y-96.52
X143.51Y-111.76
X146.05Y-96.52
X146.05Y-111.76
X148.59Y-96.52
X148.59Y-111.76
X151.13Y-96.52
X151.13Y-111.76
X153.67Y-96.52
X153.67Y-111.76
X156.21Y-96.52
X156.21Y-111.76
X158.75Y-96.52
X158.75Y-111.76
X161.29Y-96.52
X161.29Y-111.76
X163.83Y-96.52
X163.83Y-111.76
X177.546Y-85.915
X180.046Y-85.915
X120.65Y-81.36
X120.65Y-86.36
X120.65Y-140.97
X120.65Y-145.97
X198.12Y-90.297
X198.12Y-95.297
X184.15Y-88.9
X184.15Y-96.52
X186.69Y-88.9
X186.69Y-96.52
X189.23Y-88.9
X189.23Y-96.52
X191.77Y-88.9
X191.77Y-96.52
X227.901Y-56.491
X227.901Y-58.991
X102.188Y-56.515
X107.188Y-56.515
X172.72Y-113.03
X172.72Y-118.03
X117.475Y-144.78
X117.475Y-149.78
X99.06Y-72.39
X99.06Y-80.01
X101.6Y-72.39
X101.6Y-80.01
X104.14Y-72.39
X104.14Y-80.01
X106.68Y-72.39
X106.68Y-80.01
X109.22Y-72.39
X109.22Y-80.01
X111.76Y-72.39
X111.76Y-80.01
X114.3Y-72.39
X114.3Y-80.01
X113.03Y-58.293
X113.03Y-65.913
X120.65Y-58.293
X120.65Y-65.913
X91.948Y-104.14
X91.948Y-109.14
X177.165Y-68.516
X177.165Y-76.136
X95.25Y-99.06
X97.75Y-99.06
X96.52Y-113.03
X96.52Y-120.65
X99.06Y-113.03
X99.06Y-120.65
X101.6Y-113.03
X101.6Y-120.65
X104.14Y-113.03
X104.14Y-120.65
X106.68Y-113.03
X106.68Y-120.65
X109.22Y-113.03
X109.22Y-120.65
X111.76Y-113.03
X111.76Y-120.65
X114.3Y-113.03
X114.3Y-120.65
X120.65Y-125.73
X120.65Y-130.73
X195.58Y-67.31
X195.58Y-74.93
X198.12Y-67.31
X198.12Y-74.93
X200.66Y-67.31
X200.66Y-74.93
X203.2Y-67.31
X203.2Y-74.93
X205.74Y-67.31
X205.74Y-74.93
X208.28Y-67.31
X208.28Y-74.93
X210.82Y-67.31
X210.82Y-74.93
X213.36Y-67.31
X213.36Y-74.93
X215.9Y-67.31
X215.9Y-74.93
X218.44Y-67.31
X218.44Y-74.93
X125.73Y-135.89
X125.73Y-151.13
X128.27Y-135.89
X128.27Y-151.13
X130.81Y-135.89
X130.81Y-151.13
X133.35Y-135.89
X133.35Y-151.13
X135.89Y-135.89
X135.89Y-151.13
X138.43Y-135.89
X138.43Y-151.13
X140.97Y-135.89
X140.97Y-151.13
X143.51Y-135.89
X143.51Y-151.13
X146.05Y-135.89
X146.05Y-151.13
X148.59Y-135.89
X148.59Y-151.13
X151.13Y-135.89
X151.13Y-151.13
X153.67Y-135.89
X153.67Y-151.13
X156.21Y-135.89
X156.21Y-151.13
X158.75Y-135.89
X158.75Y-151.13
X161.29Y-135.89
X161.29Y-151.13
X163.83Y-135.89
X163.83Y-151.13
X166.37Y-135.89
X166.37Y-151.13
X168.91Y-135.89
X168.91Y-151.13
X171.45Y-135.89
X171.45Y-151.13
X173.99Y-135.89
X173.99Y-151.13
X121.285Y-106.68
X121.285Y-111.68
X203.2Y-77.47
X203.2Y-85.09
X205.74Y-77.47
X205.74Y-85.09
X208.28Y-77.47
X208.28Y-85.09
X210.82Y-77.47
X210.82Y-85.09
X213.36Y-77.47
X213.36Y-85.09
X215.9Y-77.47
X215.9Y-85.09
X218.44Y-77.47
X218.44Y-85.09
X203.2Y-111.76
X203.2Y-119.38
X205.74Y-111.76
X205.74Y-119.38
X208.28Y-111.76
X208.28Y-119.38
X210.82Y-111.76
X210.82Y-119.38
X213.36Y-111.76
X213.36Y-119.38
X215.9Y-111.76
X215.9Y-119.38
X218.44Y-111.76
X218.44Y-119.38
X198.12Y-124.46
X198.12Y-129.46
X177.8Y-123.19
X177.8Y-130.81
X180.34Y-123.19
X180.34Y-130.81
X182.88Y-123.19
X182.88Y-130.81
X185.42Y-123.19
X185.42Y-130.81
X187.96Y-123.19
X187.96Y-130.81
X190.5Y-123.19
X190.5Y-130.81
X193.04Y-123.19
X193.04Y-130.81
X198.12Y-78.74
X198.12Y-83.74
X172.72Y-124.46
X172.72Y-129.46
X119.825Y-72.39
X119.825Y-77.39
X195.58Y-133.35
X195.58Y-140.97
X198.12Y-133.35
X198.12Y-140.97
X200.66Y-133.35
X200.66Y-140.97
X203.2Y-133.35
X203.2Y-140.97
X205.74Y-133.35
X205.74Y-140.97
X208.28Y-133.35
X208.28Y-140.97
X210.82Y-133.35
X210.82Y-140.97
X213.36Y-133.35
X213.36Y-140.97
X215.9Y-133.35
X215.9Y-140.97
X218.44Y-133.35
X218.44Y-140.97
X198.12Y-113.157
X198.12Y-118.157
X198.12Y-100.457
X198.12Y-105.457
X172.72Y-105.41
X172.72Y-110.41
X93.98Y-93.98
X96.48Y-93.98
X125.73Y-55.88
X125.73Y-71.12
X128.27Y-55.88
X128.27Y-71.12
X130.81Y-55.88
X130.81Y-71.12
X133.35Y-55.88
X133.35Y-71.12
X135.89Y-55.88
X135.89Y-71.12
X138.43Y-55.88
X138.43Y-71.12
X140.97Y-55.88
X140.97Y-71.12
X143.51Y-55.88
X143.51Y-71.12
X146.05Y-55.88
X146.05Y-71.12
X148.59Y-55.88
X148.59Y-71.12
X151.13Y-55.88
X151.13Y-71.12
X153.67Y-55.88
X153.67Y-71.12
X156.21Y-55.88
X156.21Y-71.12
X158.75Y-55.88
X158.75Y-71.12
X161.29Y-55.88
X161.29Y-71.12
X163.83Y-55.88
X163.83Y-71.12
X166.37Y-55.88
X166.37Y-71.12
X168.91Y-55.88
X168.91Y-71.12
X171.45Y-55.88
X171.45Y-71.12
X173.99Y-55.88
X173.99Y-71.12
X191.77Y-57.15
X191.77Y-62.15
X91.948Y-124.46
X91.948Y-129.46
X106.68Y-92.735
X106.68Y-100.355
X109.22Y-92.735
X109.22Y-100.355
X111.76Y-92.735
X111.76Y-100.355
X114.3Y-92.735
X114.3Y-100.355
T6
X227.33Y-63.5
X227.33Y-66.04
X227.33Y-68.58
X227.33Y-71.12
X227.33Y-73.66
X227.33Y-76.2
X227.33Y-78.74
X227.33Y-81.28
X227.33Y-83.82
X227.33Y-86.36
X227.33Y-88.9
X227.33Y-91.44
X227.33Y-93.98
X227.33Y-96.52
X227.33Y-99.06
X227.33Y-101.6
X227.33Y-104.14
X227.33Y-106.68
X227.33Y-109.22
X227.33Y-111.76
X227.33Y-114.3
X227.33Y-116.84
X227.33Y-119.38
X227.33Y-121.92
X227.33Y-124.46
X227.33Y-127.0
X227.33Y-129.54
X227.33Y-132.08
X227.33Y-134.62
X227.33Y-137.16
X227.33Y-139.7
X227.33Y-142.24
X229.87Y-63.5
X229.87Y-66.04
X229.87Y-68.58
X229.87Y-71.12
X229.87Y-73.66
X229.87Y-76.2
X229.87Y-78.74
X229.87Y-81.28
X229.87Y-83.82
X229.87Y-86.36
X229.87Y-88.9
X229.87Y-91.44
X229.87Y-93.98
X229.87Y-96.52
X229.87Y-99.06
X229.87Y-101.6
X229.87Y-104.14
X229.87Y-106.68
X229.87Y-109.22
X229.87Y-111.76
X229.87Y-114.3
X229.87Y-116.84
X229.87Y-119.38
X229.87Y-121.92
X229.87Y-124.46
X229.87Y-127.0
X229.87Y-129.54
X229.87Y-132.08
X229.87Y-134.62
X229.87Y-137.16
X229.87Y-139.7
X229.87Y-142.24
X232.41Y-63.5
X232.41Y-66.04
X232.41Y-68.58
X232.41Y-71.12
X232.41Y-73.66
X232.41Y-76.2
X232.41Y-78.74
X232.41Y-81.28
X232.41Y-83.82
X232.41Y-86.36
X232.41Y-88.9
X232.41Y-91.44
X232.41Y-93.98
X232.41Y-96.52
X232.41Y-99.06
X232.41Y-101.6
X232.41Y-104.14
X232.41Y-106.68
X232.41Y-109.22
X232.41Y-111.76
X232.41Y-114.3
X232.41Y-116.84
X232.41Y-119.38
X232.41Y-121.92
X232.41Y-124.46
X232.41Y-127.0
X232.41Y-129.54
X232.41Y-132.08
X232.41Y-134.62
X232.41Y-137.16
X232.41Y-139.7
X232.41Y-142.24
T7
X80.709Y-149.923
X83.248Y-149.923
T8
X187.96Y-101.6
X187.96Y-104.14
X187.96Y-106.68
X180.34Y-101.6
X180.34Y-104.14
X180.34Y-106.68
X168.91Y-125.73
X168.91Y-128.27
X168.91Y-130.81
X120.65Y-96.52
X120.65Y-99.06
X120.65Y-101.6
X88.519Y-116.713
X88.519Y-119.253
X80.581Y-144.78
X83.121Y-144.78
X88.519Y-83.693
X88.519Y-86.233
X88.519Y-88.773
X176.53Y-101.6
X176.53Y-104.14
X176.53Y-106.68
X223.52Y-113.03
X223.52Y-115.57
X223.52Y-118.11
X120.65Y-115.57
X120.65Y-118.11
X120.65Y-120.65
X182.626Y-56.515
X185.166Y-56.515
X168.91Y-115.57
X168.91Y-118.11
X168.91Y-120.65
X184.15Y-101.651
X184.15Y-104.191
T9
X80.645Y-58.42
X80.645Y-60.96
X80.645Y-63.5
X80.645Y-66.04
X80.645Y-68.58
X80.645Y-71.12
X80.645Y-73.66
X80.645Y-76.2
X80.645Y-78.74
X80.645Y-81.28
X80.645Y-83.82
X80.645Y-86.36
X80.645Y-88.9
X80.645Y-91.44
X80.645Y-93.98
X80.645Y-96.52
X80.645Y-99.06
X80.645Y-101.6
X80.645Y-104.14
X80.645Y-106.68
X83.185Y-58.42
X83.185Y-60.96
X83.185Y-63.5
X83.185Y-66.04
X83.185Y-68.58
X83.185Y-71.12
X83.185Y-73.66
X83.185Y-76.2
X83.185Y-78.74
X83.185Y-81.28
X83.185Y-83.82
X83.185Y-86.36
X83.185Y-88.9
X83.185Y-91.44
X83.185Y-93.98
X83.185Y-96.52
X83.185Y-99.06
X83.185Y-101.6
X83.185Y-104.14
X83.185Y-106.68
X80.645Y-117.475
X80.645Y-120.015
X80.645Y-122.555
X80.645Y-125.095
X80.645Y-127.635
X83.185Y-117.475
X83.185Y-120.015
X83.185Y-122.555
X83.185Y-125.095
X83.185Y-127.635
T10
X180.34Y-66.294
X180.34Y-70.794
X186.84Y-66.294
X186.84Y-70.794
T11
X187.325Y-77.787
X187.325Y-82.867
T12
X234.95Y-58.42
X234.95Y-147.32
T8
G00X85.123Y-137.049
M15
G01X85.123Y-139.049
M16
G05
G00X87.123Y-142.749
M15
G01X89.123Y-142.749
M16
G05
G00X91.123Y-137.049
M15
G01X91.123Y-139.049
M16
G05
T0
M30
